<?xml version="1.0" encoding="utf-8"?>
<svg xmlns="http://www.w3.org/2000/svg" viewBox="0 0 50 50" width="50px" height="50px" xmlns:bx="https://boxy-svg.com"><defs><bx:export><bx:file format="svg"/></bx:export></defs><path d="M 25 2 C 24.285 2 23.574 2.18 22.934 2.539 L 6.09 12.004 C 4.809 12.727 4 14.074 4 15.535 L 4 34.465 C 4 35.93 4.809 37.277 6.09 38 L 22.934 47.461 C 24.215 48.184 25.785 48.184 27.066 47.461 L 43.91 38 C 45.195 37.277 46 35.926 46 34.465 L 46 15.535 C 46 14.074 45.191 12.727 43.91 12.004 L 27.066 2.539 C 26.426 2.18 25.715 2 25 2 Z M 25 4 C 25.375 4 25.754 4.094 26.09 4.281 L 42.934 13.746 C 43.602 14.125 44 14.805 44 15.535 L 44 24 L 44 26 L 44 34.465 C 44 35.195 43.602 35.875 42.93 36.254 L 26.09 45.719 C 25.418 46.094 24.582 46.094 23.91 45.719 L 7.07 36.254 C 6.398 35.875 6 35.199 6 34.465 L 6 15.535 C 6 14.805 6.398 14.125 7.07 13.746 L 23.91 4.281 C 24.246 4.094 24.625 4 25 4 Z M 25 12 C 17.84 12 12 17.84 12 25 C 12 32.16 17.84 38 25 38 C 29.09 38 32.887 36.094 35.34 32.863 L 36.023 31.961 L 29.969 28.453 L 29.422 29.047 C 28.293 30.281 26.691 31 25 31 C 21.684 31 19 28.316 19 25 C 19 21.684 21.684 19 25 19 C 26.691 19 28.293 19.719 29.422 20.953 L 29.969 21.547 L 36.023 18.039 L 35.34 17.137 C 32.887 13.906 29.09 12 25 12 Z M 25 14 C 28.074 14 30.887 15.316 32.945 17.512 L 30.203 19.098 C 28.758 17.832 26.961 17 25 17 C 20.598 17 17 20.598 17 25 C 17 29.402 20.598 33 25 33 C 26.961 33 28.758 32.168 30.203 30.902 L 32.945 32.488 C 30.887 34.684 28.074 36 25 36 C 18.926 36 14 31.074 14 25 C 14 18.926 18.926 14 25 14 Z"/></svg>