<!DOCTYPE svg PUBLIC "-//W3C//DTD SVG 1.1//EN" "http://www.w3.org/Graphics/SVG/1.1/DTD/svg11.dtd">
<!-- Uploaded to: SVG Repo, www.svgrepo.com, Transformed by: SVG Repo Mixer Tools -->
<svg width="100px" height="100px" viewBox="-18.56 -18.56 101.12 101.12" version="1.1" xmlns="http://www.w3.org/2000/svg" xmlns:xlink="http://www.w3.org/1999/xlink" xmlns:sketch="http://www.bohemiancoding.com/sketch/ns" fill="#000000" transform="rotate(-45)">
<g id="SVGRepo_bgCarrier" stroke-width="0"/>
<g id="SVGRepo_tracerCarrier" stroke-linecap="round" stroke-linejoin="round" stroke="#CCCCCC" stroke-width="2.432"> <title>Rocket</title> <desc>Created with Sketch.</desc> <defs> </defs> <g id="Page-1" stroke="none" stroke-width="1" fill="none" fill-rule="evenodd" sketch:type="MSPage"> <g id="Rocket" sketch:type="MSLayerGroup" transform="translate(2.000000, 1.000000)" stroke="#CBD6E2" stroke-width="2"> <path d="M19,18.8 C28,9.8 53.6,-4.5 59.6,1.4 C65.6,7.4 50.7,32.4 41.6,41.4" id="Shape" sketch:type="MSShapeGroup"> </path> <path d="M48.3,33.5 C48.2,34.5 46.8,54.3 33.9,60.5 C33.9,60.5 23.2,46.9 18.3,42.1 C13.4,37.2 23.2,46.9 17.7,41.4 C12.2,35.9 -0.1,26.5 -0.1,26.5 C6.5,13.8 27.5,12 27.5,12" id="Shape" sketch:type="MSShapeGroup"> </path> <path d="M24.7,49.2 C22.8,51.1 30,64.9 12.7,47.7 C-4.6,30.4 9.3,37.6 11.2,35.7" id="Shape" sketch:type="MSShapeGroup"> </path> <path d="M44,2.4 L58.2,16.7" id="Shape" sketch:type="MSShapeGroup"> </path> <path d="M36.6,33.6 C33.9,36.3 29.5,36.3 26.8,33.6 C24.1,30.9 24.1,26.5 26.8,23.8 C29.5,21.1 37.5,17.4 40.2,20.1 C42.9,22.8 39.3,30.9 36.6,33.6 L36.6,33.6 Z" id="Shape" sketch:type="MSShapeGroup"> </path> </g> </g> </g>
<g id="SVGRepo_iconCarrier"> <title>Rocket</title> <desc>Created with Sketch.</desc> <defs> </defs> <g id="Page-1" stroke="none" stroke-width="1" fill="none" fill-rule="evenodd" sketch:type="MSPage"> <g id="Rocket" sketch:type="MSLayerGroup" transform="translate(2.000000, 1.000000)" stroke="#CBD6E2" stroke-width="2"> <path d="M19,18.8 C28,9.8 53.6,-4.5 59.6,1.4 C65.6,7.4 50.7,32.4 41.6,41.4" id="Shape" sketch:type="MSShapeGroup"> </path> <path d="M48.3,33.5 C48.2,34.5 46.8,54.3 33.9,60.5 C33.9,60.5 23.2,46.9 18.3,42.1 C13.4,37.2 23.2,46.9 17.7,41.4 C12.2,35.9 -0.1,26.5 -0.1,26.5 C6.5,13.8 27.5,12 27.5,12" id="Shape" sketch:type="MSShapeGroup"> </path> <path d="M24.7,49.2 C22.8,51.1 30,64.9 12.7,47.7 C-4.6,30.4 9.3,37.6 11.2,35.7" id="Shape" sketch:type="MSShapeGroup"> </path> <path d="M44,2.4 L58.2,16.7" id="Shape" sketch:type="MSShapeGroup"> </path> <path d="M36.6,33.6 C33.9,36.3 29.5,36.3 26.8,33.6 C24.1,30.9 24.1,26.5 26.8,23.8 C29.5,21.1 37.5,17.4 40.2,20.1 C42.9,22.8 39.3,30.9 36.6,33.6 L36.6,33.6 Z" id="Shape" sketch:type="MSShapeGroup"> </path> </g> </g> </g>
</svg>